<?xml version="1.0" standalone="no"?>
<!DOCTYPE svg PUBLIC "-//W3C//DTD SVG 20010904//EN"
 "http://www.w3.org/TR/2001/REC-SVG-20010904/DTD/svg10.dtd">
<svg version="1.0" xmlns="http://www.w3.org/2000/svg"
 width="1200.000000pt" height="1200.000000pt" viewBox="0 0 1200.000000 1200.000000"
 preserveAspectRatio="xMidYMid meet">
<metadata>
Created by potrace 1.11, written by Peter Selinger 2001-2013
</metadata>
<g transform="translate(0.000000,1200.000000) scale(0.100000,-0.100000)"
fill="#000000" stroke="none">
<path d="M5128 11995 c-2 -2 -100 -6 -218 -9 -219 -7 -317 -15 -495 -42 -753
-112 -1447 -376 -2080 -792 -354 -232 -558 -402 -890 -742 -163 -167 -180
-185 -293 -325 -458 -565 -794 -1229 -981 -1935 -31 -117 -86 -377 -102 -485
-24 -157 -39 -266 -45 -335 -3 -41 -10 -106 -14 -145 -4 -38 -8 -572 -8 -1185
0 -1218 1 -1237 63 -1645 39 -254 123 -592 215 -859 217 -635 585 -1271 1010
-1746 123 -137 444 -449 568 -553 744 -619 1683 -1030 2632 -1151 261 -34 510
-41 1490 -41 889 0 1130 5 1380 26 122 10 134 11 275 35 50 8 106 17 125 20
75 12 344 74 468 109 580 159 1153 437 1657 804 234 170 416 331 678 599 102
104 147 154 238 259 124 142 441 596 492 703 4 8 23 42 43 75 65 111 222 438
288 601 85 212 166 466 220 689 67 274 99 460 130 750 13 114 21 729 20 1465
0 963 -6 1125 -49 1430 -123 861 -464 1676 -1003 2395 -58 77 -108 142 -111
145 -3 3 -28 32 -56 65 -69 83 -232 252 -421 435 -148 143 -202 189 -384 327
-607 458 -1258 764 -1975 927 -358 81 -545 106 -940 122 -128 6 -1922 13
-1927 9z m2102 -909 c25 -3 97 -13 160 -21 647 -84 1268 -317 1820 -683 535
-355 1031 -892 1347 -1457 266 -475 433 -984 515 -1565 21 -151 22 -183 24
-1300 1 -638 -2 -1189 -7 -1245 -69 -754 -306 -1425 -722 -2045 -58 -87 -178
-251 -197 -270 -3 -3 -25 -30 -50 -60 -122 -150 -389 -417 -550 -552 -584
-486 -1261 -796 -2035 -933 -16 -3 -102 -15 -190 -27 -158 -22 -177 -23 -1305
-23 -1016 0 -1253 3 -1365 20 -16 2 -66 9 -110 15 -44 6 -100 15 -125 20 -25
4 -74 14 -110 20 -322 60 -713 193 -1045 355 -1174 575 -2018 1655 -2289 2929
-36 167 -40 190 -57 316 -5 41 -12 93 -15 115 -18 130 -22 335 -21 1315 0
1145 1 1200 47 1490 264 1661 1468 3006 3088 3450 149 41 341 84 425 94 26 4
69 11 95 16 45 8 95 14 262 30 95 9 2349 6 2410 -4z"/>
<path d="M5954 9049 c-85 -10 -206 -54 -294 -107 -190 -112 -348 -350 -365
-546 -3 -33 -7 -423 -10 -865 -2 -442 -6 -805 -8 -807 -2 -2 -381 -6 -843 -9
-925 -6 -891 -3 -1031 -70 -217 -102 -370 -280 -432 -502 -25 -91 -28 -284 -6
-377 58 -254 252 -469 504 -560 38 -14 86 -27 107 -30 22 -3 412 -8 869 -11
456 -3 831 -7 832 -9 2 -2 6 -327 8 -722 5 -802 8 -870 34 -946 85 -248 264
-425 515 -511 91 -31 324 -35 425 -7 231 64 405 215 511 443 36 77 42 99 55
202 3 22 7 377 10 790 3 412 7 750 8 751 1 2 350 5 775 9 425 3 796 10 823 15
133 25 278 107 389 219 152 154 220 320 221 540 0 170 -31 277 -124 423 -112
177 -333 322 -522 342 -33 4 -397 9 -809 12 -413 2 -751 6 -753 7 -1 2 -5 375
-8 830 -3 455 -8 844 -11 865 -30 211 -198 437 -402 545 -108 57 -202 83 -312
86 -47 2 -87 4 -90 5 -3 1 -33 -1 -66 -5z"/>
</g>
</svg>
